<svg width="230" height="198" viewBox="0 0 230 198" fill="none" xmlns="http://www.w3.org/2000/svg">
<g opacity="0.2">
<mask id="mask0_1_613" style="mask-type:alpha" maskUnits="userSpaceOnUse" x="0" y="0" width="230" height="198">
<rect width="230" height="198" fill="#D9D9D9"/>
</mask>
<g mask="url(#mask0_1_613)">
<mask id="mask1_1_613" style="mask-type:alpha" maskUnits="userSpaceOnUse" x="-41" y="-54" width="359" height="298">
<path fill-rule="evenodd" clip-rule="evenodd" d="M121.255 -51.6695C144.711 -54.5765 164.691 -36.4756 188.041 -32.9108C227.121 -26.9447 278.054 -51.1015 304.413 -23.7076C328.464 1.28827 307.897 44.5913 291.185 74.2848C276.86 99.7384 244.866 110.261 219.638 126.921C203.951 137.281 183.503 140.381 170.791 153.793C149.157 176.619 150.03 216.17 121.255 230.727C92.913 245.064 51.9296 244.961 26.1213 226.979C-0.127501 208.689 5.97431 170.662 -5.74885 142.234C-15.3903 118.854 -44.0709 98.4017 -36.8467 74.2848C-29.1522 48.5978 8.81296 43.7872 29.3365 25.107C43.2823 12.4136 49.5227 -5.41559 64.0426 -17.5436C81.1811 -31.8588 98.3854 -48.8353 121.255 -51.6695Z" fill="#C4C4C4" stroke="white" stroke-width="4"/>
</mask>
<g mask="url(#mask1_1_613)">
<path fill-rule="evenodd" clip-rule="evenodd" d="M163.693 3.79816C187.153 0.891881 207.134 18.9883 230.488 22.5523C269.573 28.5169 320.513 4.36602 346.875 31.7532C370.93 56.743 350.36 100.035 333.646 129.722C319.319 155.169 287.321 165.689 262.089 182.345C246.4 192.703 225.949 195.801 213.236 209.21C191.599 232.031 192.472 271.572 163.693 286.125C135.347 300.459 94.3581 300.356 68.5463 282.378C42.2939 264.093 48.3965 226.075 36.6718 197.654C27.0291 174.28 -1.65552 153.833 5.5697 129.722C13.2653 104.041 51.2356 99.2315 71.7619 80.5558C85.7096 67.8656 91.9509 50.0407 106.473 37.9157C123.614 23.604 140.82 6.63168 163.693 3.79816Z" stroke="white" stroke-width="4"/>
<path fill-rule="evenodd" clip-rule="evenodd" d="M188.833 48.9521C209.255 46.4222 226.65 62.1747 246.98 65.277C281.004 70.4691 325.349 49.4464 348.298 73.2863C369.238 95.0392 351.332 132.724 336.782 158.565C324.31 180.717 296.454 189.874 274.49 204.373C260.831 213.389 243.029 216.086 231.961 227.759C213.126 247.623 213.886 282.043 188.833 294.711C164.157 307.189 128.475 307.099 106.005 291.449C83.1515 275.533 88.464 242.439 78.2573 217.699C69.863 197.352 44.8923 179.553 51.182 158.565C57.8812 136.211 90.9355 132.025 108.804 115.768C120.946 104.721 126.379 89.2051 139.021 78.6505C153.942 66.1926 168.921 51.4186 188.833 48.9521Z" stroke="white" stroke-width="4"/>
<path fill-rule="evenodd" clip-rule="evenodd" d="M222.135 87.4201C240.279 85.1671 255.733 99.1961 273.796 101.959C304.025 106.583 343.423 87.8604 363.813 109.092C382.417 128.465 366.508 162.027 353.581 185.041C342.5 204.769 317.752 212.924 298.237 225.837C286.102 233.866 270.285 236.268 260.452 246.664C243.718 264.355 244.393 295.009 222.135 306.291C200.211 317.403 168.509 317.323 148.546 303.386C128.242 289.211 132.962 259.738 123.894 237.705C116.436 219.584 94.2502 203.733 99.8384 185.041C105.79 165.132 135.158 161.404 151.033 146.926C161.821 137.088 166.648 123.269 177.879 113.869C191.136 102.774 204.444 89.6168 222.135 87.4201Z" stroke="white" stroke-width="4"/>
</g>
</g>
</g>
</svg>
